<?xml version="1.0" encoding="UTF-8" standalone="no"?>
<!DOCTYPE svg PUBLIC "-//W3C//DTD SVG 1.1//EN" "http://www.w3.org/Graphics/SVG/1.1/DTD/svg11.dtd">
<svg width="100%" height="100%" viewBox="0 0 24 24" version="1.1" xmlns="http://www.w3.org/2000/svg" xmlns:xlink="http://www.w3.org/1999/xlink" xml:space="preserve" xmlns:serif="http://www.serif.com/" style="fill-rule:evenodd;clip-rule:evenodd;stroke-linejoin:round;stroke-miterlimit:2;">
    <path d="M19,3L5,3C3.903,3 3,3.903 3,5L3,19C3,20.097 3.903,21 5,21L19,21C20.097,21 21,20.097 21,19L21,5C21,3.903 20.097,3 19,3M15.6,17L12,13.4L8.4,17L7,15.6L10.6,12L7,8.4L8.4,7L12,10.6L15.6,7L17,8.4L13.4,12L17,15.6L15.6,17Z" style="fill:rgb(42,27,64);fill-rule:nonzero;"/>
</svg>
